<svg width="24" height="24" viewBox="0 0 96 96" fill="currentColor" xmlns="http://www.w3.org/2000/svg">
  <path fill-rule="evenodd" clip-rule="evenodd" d="M40.856 8.368c-6.047.973-11.082 2.939-16.266 6.352-6.672 4.39-12.298 11.25-15.2 18.53-1.994 5.004-2.776 9.16-2.783 14.788-.023 18.564 13.05 34.728 31.487 38.932 8.965 2.043 18.8.877 27.245-3.232 11.277-5.487 19.074-15.5 21.793-27.988.487-2.232.573-3.392.578-7.75.006-5.757-.352-8.055-2.024-13-4.427-13.088-16.16-23.308-30.195-26.299-3.069-.654-11.453-.845-14.636-.333m4.449 10.877c-2.15.318-3.773.967-5.63 2.251-6.647 4.594-7.345 14.291-1.422 19.745 2.568 2.365 5.419 3.491 8.868 3.503 4.513.015 9.019-2.425 11.265-6.102 2.256-3.692 2.418-8.747.405-12.642-1.646-3.184-4.99-5.78-8.354-6.483-1.756-.367-3.77-.474-5.132-.272M44.19 56.158c-.35.05-1.664.217-2.921.371-6.19.76-12.986 3.071-17.318 5.891-1.636 1.066-2.496 2.607-2.292 4.107.267 1.956 3.552 5.312 7.984 8.156 5.388 3.457 10.977 5.068 17.575 5.066 6.718-.001 12.865-1.853 18.305-5.513 3.804-2.56 6.912-5.739 7.227-7.394.271-1.42-.255-2.7-1.582-3.851-1.39-1.207-5.876-3.43-8.82-4.371-5.968-1.91-14.198-3.025-18.158-2.462"/>
  <path fill-rule="evenodd" clip-rule="evenodd" d="M42.92 8.253C20.675 10.389 4.033 31.037 6.98 52.843c1.296 9.584 5.287 17.347 12.355 24.032 5.298 5.011 11.567 8.314 19.141 10.083 2.573.6 3.246.653 8.508.66 5.085.006 6.007-.057 8.375-.579 11.156-2.458 19.832-8.296 25.915-17.438 6.71-10.085 8.275-23.252 4.151-34.916-3.105-8.78-9.416-16.335-17.757-21.255-6.974-4.114-16.049-6.012-24.747-5.177m.278 11.369c-7.799 2.485-11.428 11.321-7.58 18.452 1.575 2.916 4.217 5.108 7.489 6.212 2.355.794 5.837.789 8.18-.013 7.07-2.422 10.684-9.519 8.373-16.446-2.236-6.7-9.625-10.384-16.462-8.205m-2.182 36.77c-5.234.788-10.437 2.385-14.468 4.441-4.015 2.049-5.472 3.81-4.968 6.01.267 1.164.86 1.933 3.22 4.173 8.408 7.977 20.372 10.85 31.708 7.613 2.752-.785 6.133-2.373 8.889-4.174 2.398-1.567 6.519-5.387 7.09-6.572.516-1.07.512-2.454-.01-3.535-1.424-2.956-10.666-6.744-19.453-7.974-3.218-.45-8.954-.441-12.008.018"/>
</svg>
