<svg width="24" height="24" viewBox="0 0 24 24" fill="none" xmlns="http://www.w3.org/2000/svg">
<path d="M8.69515 17.8235C9.55297 17.8235 10.2484 18.5346 10.2484 19.4118C10.2484 20.2889 9.55297 21 8.69515 21C7.83733 21 7.14193 20.2889 7.14193 19.4118C7.14193 18.5346 7.83733 17.8235 8.69515 17.8235Z" fill="black"/>
<path d="M18.0145 17.8235C18.8723 17.8235 19.5677 18.5346 19.5677 19.4118C19.5677 20.2889 18.8723 21 18.0145 21C17.1567 21 16.4613 20.2889 16.4613 19.4118C16.4613 18.5346 17.1567 17.8235 18.0145 17.8235Z" fill="black"/>
<path d="M5.22669 3C5.26403 3.00002 5.3008 3.00261 5.33691 3.00724C5.67276 2.9861 6.00537 3.16275 6.17217 3.48702L7.01148 5.11765H19.9631C20.7328 5.11765 21.2336 5.94603 20.8894 6.65005L17.7829 13.003C17.6075 13.3617 17.2488 13.5882 16.8566 13.5882H10.2352L9.6376 14.6471H18.5322C19.1041 14.6471 19.5677 15.1211 19.5677 15.7059C19.5677 16.2907 19.1041 16.7647 18.5322 16.7647H7.86697C7.85786 16.7647 7.84869 16.7619 7.83966 16.7616C7.6657 16.7608 7.48946 16.7162 7.32799 16.621C6.83277 16.3286 6.66295 15.6808 6.94878 15.1744L8.57684 12.2885L5.9315 6.87753C5.91072 6.84703 5.89124 6.81511 5.87387 6.78137L4.85456 4.80021H3.87975C3.39384 4.79998 3 4.3965 3 3.89959C3.00022 3.40286 3.39398 3.00022 3.87975 3H5.22669Z" fill="black"/>
</svg>
