<svg width="24" height="24" viewBox="0 0 24 24" fill="none" xmlns="http://www.w3.org/2000/svg">
<path d="M21 20C21.5523 20 22 20.4477 22 21C22 21.5523 21.5523 22 21 22H3C2.44772 22 2 21.5523 2 21C2 20.4477 2.44772 20 3 20H21ZM13 2C13.5523 2 14 2.44772 14 3V11H17.3066C17.6895 11 18 11.3105 18 11.6934C18 11.8885 17.9178 12.0747 17.7734 12.2061L12.7861 16.7402C12.6021 16.9075 12.362 17 12.1133 17H11.8867C11.638 17 11.3979 16.9075 11.2139 16.7402L6.22656 12.2061C6.08224 12.0747 6.00002 11.8885 6 11.6934C6 11.3105 6.31046 11 6.69336 11H10V3C10 2.44772 10.4477 2 11 2H13Z" fill="black"/>
</svg>
