<svg width="50" height="50" viewBox="0 0 50 50" fill="none" xmlns="http://www.w3.org/2000/svg">
<path d="M39.5 29.2422C39.7761 29.2422 39.9999 29.4662 40 29.7422V29.8486C39.9998 38.2164 33.2842 45 25 45C22.7889 45 20.6895 44.5171 18.7998 43.6494C18.4977 43.5107 18.4304 43.1172 18.6582 42.875L23.1309 38.1191C23.2886 37.9514 23.5391 37.9163 23.75 38.0088C24.225 38.2172 24.7489 38.333 25.2998 38.333C27.4537 38.333 29.2002 36.5692 29.2002 34.3936C29.2 32.2181 27.4536 30.4541 25.2998 30.4541C23.1462 30.4543 21.4006 32.2182 21.4004 34.3936C21.4004 35.1729 21.6251 35.8992 22.0117 36.5107C22.015 36.516 22.0087 36.5215 22.0039 36.5176C22.0017 36.516 21.998 36.5166 21.9961 36.5186L16.8115 42.0303C16.6418 42.2104 16.3652 42.2397 16.166 42.0928C12.4291 39.3372 10.0001 34.8799 10 29.8486V29.7422C10.0001 29.4662 10.2239 29.2422 10.5 29.2422H39.5ZM27.5186 34.2168C27.7027 34.0442 27.9998 34.1422 28 34.3945C27.9996 35.9004 26.7907 37.121 25.2998 37.1211C24.9593 37.1209 24.8541 36.7155 25.1025 36.4824L27.5186 34.2168ZM26.6025 32.4375C26.76 32.2892 27.0043 32.2709 27.1602 32.4209C27.2358 32.4937 27.3072 32.5711 27.374 32.6523C27.5094 32.8169 27.4766 33.0552 27.3223 33.2021L24.0029 36.3555C23.846 36.5044 23.6025 36.5236 23.4463 36.374C23.3652 36.2963 23.2888 36.2133 23.2178 36.126C23.0834 35.9606 23.1174 35.7224 23.2725 35.5762L26.6025 32.4375ZM25.2998 31.667C25.6475 31.667 25.7531 32.0791 25.498 32.3154L23.0645 34.5693C22.8851 34.7351 22.6 34.6387 22.5996 34.3945C22.5997 32.8885 23.8088 31.6672 25.2998 31.667ZM33.6006 23.7881C34.1527 23.7882 34.6006 24.2359 34.6006 24.7881V26.4238C34.6006 26.976 34.1527 27.4237 33.6006 27.4238H16.4004C15.8481 27.4238 15.4004 26.9761 15.4004 26.4238V24.7881C15.4004 24.2358 15.8481 23.7881 16.4004 23.7881H33.6006ZM25 5C28.4905 5.00016 31.4449 7.29332 32.4404 10.4551H33.3389C36.686 10.4551 39.3994 13.1684 39.3994 16.5156C39.3992 19.8626 36.6859 22.5762 33.3389 22.5762H16.6602C13.3133 22.576 10.5998 19.8625 10.5996 16.5156C10.5996 13.1685 13.3131 10.4552 16.6602 10.4551H17.5586C18.5541 7.29322 21.5094 5.00013 25 5Z" fill="black"/>
</svg>
