<svg width="101" height="101" viewBox="0 0 101 101" fill="none" xmlns="http://www.w3.org/2000/svg">
<path fill-rule="evenodd" clip-rule="evenodd" d="M77 11C81.4183 11 85 14.5817 85 19V87C85 91.4183 81.4183 95 77 95H24C19.5817 95 16 91.4183 16 87V19C16 14.5817 19.5817 11 24 11H77ZM24 17C22.8954 17 22 17.8954 22 19V87C22 88.1046 22.8954 89 24 89H77C78.1046 89 79 88.1046 79 87V19C79 17.8954 78.1046 17 77 17H24Z" fill="black"/>
<path d="M28 37.5C28 35.567 29.567 34 31.5 34H69.5C71.433 34 73 35.567 73 37.5C73 39.433 71.433 41 69.5 41H31.5C29.567 41 28 39.433 28 37.5Z" fill="#F25220"/>
<path d="M28 53.5C28 51.567 29.567 50 31.5 50H69.5C71.433 50 73 51.567 73 53.5C73 55.433 71.433 57 69.5 57H31.5C29.567 57 28 55.433 28 53.5Z" fill="#F25220"/>
<path d="M28 69.5C28 67.567 29.567 66 31.5 66H69.5C71.433 66 73 67.567 73 69.5C73 71.433 71.433 73 69.5 73H31.5C29.567 73 28 71.433 28 69.5Z" fill="#F25220"/>
<path d="M28 9.5C28 7.567 29.567 6 31.5 6C33.433 6 35 7.567 35 9.5V18.5C35 20.433 33.433 22 31.5 22C29.567 22 28 20.433 28 18.5V9.5Z" fill="black"/>
<path d="M47 9.5C47 7.567 48.567 6 50.5 6C52.433 6 54 7.567 54 9.5V18.5C54 20.433 52.433 22 50.5 22C48.567 22 47 20.433 47 18.5V9.5Z" fill="black"/>
<path d="M66 9.5C66 7.567 67.567 6 69.5 6C71.433 6 73 7.567 73 9.5V18.5C73 20.433 71.433 22 69.5 22C67.567 22 66 20.433 66 18.5V9.5Z" fill="black"/>
</svg>
