<svg width="24" height="24" viewBox="0 0 24 24" fill="none" xmlns="http://www.w3.org/2000/svg">
<path d="M18.3636 18.1176C18.8657 18.1176 19.2727 18.539 19.2727 19.0588C19.2727 19.5786 18.8657 20 18.3636 20H5.63636C5.13429 20 4.72727 19.5786 4.72727 19.0588C4.72727 18.539 5.13429 18.1176 5.63636 18.1176H18.3636Z" fill="#F6C02B"/>
<path d="M12 4C12.5021 4 12.9091 4.42138 12.9091 4.94118C12.9091 5.15294 12.8402 5.34734 12.7262 5.5046L15.4313 9.35478C15.5523 9.52706 15.7701 9.59393 15.9622 9.51746L20.1845 7.83548C20.1828 7.81211 20.1818 7.78852 20.1818 7.76471C20.1818 7.24491 20.5888 6.82353 21.0909 6.82353C21.593 6.82353 22 7.24491 22 7.76471C22 8.25096 21.6438 8.65076 21.1868 8.70037L19.4068 15.7086C19.328 16.0187 19.0569 16.2353 18.7472 16.2353H5.07795C4.87146 16.2353 4.69104 16.0909 4.63849 15.8842L2.81232 8.70037C2.35575 8.65034 2 8.25065 2 7.76471C2 7.24491 2.40701 6.82353 2.90909 6.82353C3.41117 6.82353 3.81818 7.24491 3.81818 7.76471C3.81818 7.78854 3.81631 7.81209 3.81463 7.83548L8.03782 9.51746C8.22986 9.59393 8.44769 9.52706 8.56871 9.35478L11.2729 5.5046C11.1591 5.34742 11.0909 5.15274 11.0909 4.94118C11.0909 4.42138 11.4979 4 12 4Z" fill="#F6C02B"/>
</svg>
