<svg width="24" height="24" viewBox="0 0 24 24" fill="none" xmlns="http://www.w3.org/2000/svg">
<path d="M19 8C20.6569 8 22 9.34315 22 11V15C22 16.1046 21.1046 17 20 17H18V19C18 20.1046 17.1046 21 16 21H8C6.89543 21 6 20.1046 6 19V17H4C2.89543 17 2 16.1046 2 15V11C2 9.34315 3.34315 8 5 8H19ZM9 14C8.44772 14 8 14.4477 8 15V18C8 18.5523 8.44772 19 9 19H15C15.5523 19 16 18.5523 16 18V15C16 14.4477 15.5523 14 15 14H9ZM19 10C18.4477 10 18 10.4477 18 11C18 11.5523 18.4477 12 19 12C19.5523 12 20 11.5523 20 11C20 10.4477 19.5523 10 19 10ZM17 2C17.5523 2 18 2.44772 18 3V5C18 5.55228 17.5523 6 17 6H7C6.44772 6 6 5.55228 6 5V3C6 2.44772 6.44772 2 7 2H17Z" fill="black"/>
</svg>
