<svg width="24" height="24" viewBox="0 0 24 24" fill="none" xmlns="http://www.w3.org/2000/svg">
<path fill-rule="evenodd" clip-rule="evenodd" d="M17.5019 14.5852C16.7892 15.7842 15.7842 16.7892 14.5852 17.5019L19.0833 22L22 19.0833L17.5019 14.5852Z" fill="#EF4444"/>
<path d="M18.6667 10.3333C18.6667 5.73096 14.9357 2 10.3333 2C5.73096 2 2 5.73096 2 10.3333C2 14.9357 5.73096 18.6667 10.3333 18.6667C11.8865 18.6667 13.3404 18.2418 14.5852 17.5019C15.7842 16.7892 16.7892 15.7842 17.5019 14.5852C18.2418 13.3404 18.6667 11.8865 18.6667 10.3333ZM5.33333 10.3333C5.33333 7.57191 7.57191 5.33333 10.3333 5.33333C13.0948 5.33333 15.3333 7.57191 15.3333 10.3333C15.3333 13.0948 13.0948 15.3333 10.3333 15.3333C7.57191 15.3333 5.33333 13.0948 5.33333 10.3333Z" fill="#EF4444"/>
</svg>
