<svg width="24" height="24" viewBox="0 0 24 24" fill="none" xmlns="http://www.w3.org/2000/svg">
<path d="M1.08264 11.9114C6.57914 1.36306 17.2415 1.36301 22.7379 11.9114C22.8465 12.1204 22.8466 12.3791 22.7379 12.5881C17.2415 23.1364 6.57915 23.1362 1.08264 12.5881C0.973908 12.3791 0.973931 12.1205 1.08264 11.9114ZM11.9108 7.25024C9.14949 7.25024 6.91101 9.48903 6.91077 12.2502C6.91138 15.0112 9.14972 17.2502 11.9108 17.2502C14.6714 17.2498 16.9102 15.0109 16.9108 12.2502C16.9105 9.48932 14.6716 7.25072 11.9108 7.25024ZM11.9098 9.24927C13.5664 9.24947 14.9096 10.5927 14.9098 12.2493C14.9098 13.906 13.5665 15.2491 11.9098 15.2493C10.2532 15.249 8.90981 13.9059 8.90979 12.2493C8.90995 10.5927 10.2533 9.24953 11.9098 9.24927Z" fill="black"/>
</svg>
